<svg width="30" height="27" viewBox="0 0 30 27" fill="none" xmlns="http://www.w3.org/2000/svg">
<path d="M26.7881 3.14666C26.1071 2.46533 25.2985 1.92485 24.4086 1.5561C23.5187 1.18735 22.5648 0.997559 21.6015 0.997559C20.6381 0.997559 19.6843 1.18735 18.7943 1.5561C17.9044 1.92485 17.0958 2.46533 16.4148 3.14666L15.0015 4.55999L13.5881 3.14666C12.2125 1.77107 10.3468 0.998272 8.40146 0.998272C6.45608 0.998272 4.59038 1.77107 3.21479 3.14666C1.8392 4.52225 1.06641 6.38795 1.06641 8.33333C1.06641 10.2787 1.8392 12.1444 3.21479 13.52L4.62813 14.9333L15.0015 25.3067L25.3748 14.9333L26.7881 13.52C27.4695 12.839 28.0099 12.0304 28.3787 11.1405C28.7474 10.2505 28.9372 9.29664 28.9372 8.33333C28.9372 7.37001 28.7474 6.41613 28.3787 5.52619C28.0099 4.63624 27.4695 3.82767 26.7881 3.14666V3.14666Z" stroke="white" stroke-width="2" stroke-linecap="round" stroke-linejoin="round"/>
</svg>
